<svg width="96" height="96" viewBox="0 0 96 96" fill="none" xmlns="http://www.w3.org/2000/svg">
<path d="M92 32.5195H4V80.5495H92V32.5195Z" fill="#D1D3D4"/>
<path d="M74.1601 72.9297H21.8301V80.5497H74.1601V72.9297Z" fill="#BCBEC0"/>
<path d="M92 76.7402H4V80.5502H92V76.7402Z" fill="#BCBEC0"/>
<path d="M81.4401 32.5195H14.5501C13.4621 32.5195 12.5801 33.4015 12.5801 34.4895V70.9595C12.5801 72.0475 13.4621 72.9295 14.5501 72.9295H81.4401C82.5281 72.9295 83.4101 72.0475 83.4101 70.9595V34.4895C83.4101 33.4015 82.5281 32.5195 81.4401 32.5195Z" fill="#F1F2F2"/>
<path d="M94.99 25.9805H1V32.5205H94.99V25.9805Z" fill="#F49B38"/>
<path d="M94.99 25.9805H1V29.2505H94.99V25.9805Z" fill="#F4C86F"/>
<path d="M76.5899 25.9805H19.4199V32.5205H76.5899V25.9805Z" fill="#F4504C"/>
<path d="M69 65.3105H27V80.5506H69V65.3105Z" fill="#F1F2F2"/>
<path d="M69 81.5506H27C26.7348 81.5506 26.4804 81.4452 26.2929 81.2577C26.1054 81.0701 26 80.8158 26 80.5506V65.3105C26 65.0453 26.1054 64.791 26.2929 64.6034C26.4804 64.4159 26.7348 64.3105 27 64.3105H69C69.2652 64.3105 69.5196 64.4159 69.7071 64.6034C69.8946 64.791 70 65.0453 70 65.3105V80.5506C70 80.8158 69.8946 81.0701 69.7071 81.2577C69.5196 81.4452 69.2652 81.5506 69 81.5506ZM28 79.5506H68V66.3105H28V79.5506Z" fill="#302D3D"/>
<path d="M69 65.3105H27V80.5506H69V65.3105Z" fill="#D1D3D4"/>
<path d="M64.0899 65.3105H31.9199C31.5057 65.3105 31.1699 65.6463 31.1699 66.0605V73.5806C31.1699 73.9948 31.5057 74.3306 31.9199 74.3306H64.0899C64.5041 74.3306 64.8399 73.9948 64.8399 73.5806V66.0605C64.8399 65.6463 64.5041 65.3105 64.0899 65.3105Z" fill="#F1F2F2"/>
<path d="M69 11.3105H27V18.9305H69V11.3105Z" fill="#F4504C"/>
<path d="M60.9201 11.3105H35.0801V18.9305H60.9201V11.3105Z" fill="#F49B38"/>
<path d="M69 11.3105H27V15.1205H69V11.3105Z" fill="#F4C86F"/>
<path d="M64.6299 11.3105H31.3799V15.1205H64.6299V11.3105Z" fill="#F4EB97"/>
<path d="M69 18.9395H27V65.3094H69V18.9395Z" fill="#4895EF"/>
<path d="M64 51.37V58.09C64.0013 58.382 63.9448 58.6712 63.8337 58.9412C63.7226 59.2111 63.5591 59.4564 63.3527 59.6628C63.1463 59.8692 62.9011 60.0327 62.6311 60.1438C62.3612 60.2548 62.0719 60.3114 61.78 60.31H34.22C33.9281 60.3114 33.6388 60.2548 33.3689 60.1438C33.0989 60.0327 32.8537 59.8692 32.6473 59.6628C32.4409 59.4564 32.2774 59.2111 32.1663 58.9412C32.0552 58.6712 31.9987 58.382 32 58.09V51.37C32 51.073 31.882 50.7881 31.672 50.5781C31.4619 50.368 31.177 50.25 30.88 50.25H28.12C27.9729 50.25 27.8273 50.279 27.6914 50.3353C27.5555 50.3916 27.432 50.4741 27.328 50.5781C27.224 50.6821 27.1415 50.8056 27.0853 50.9414C27.029 51.0773 27 51.223 27 51.37V65.31H69V51.37C69 51.2221 68.9707 51.0757 68.9138 50.9391C68.8569 50.8026 68.7735 50.6787 68.6684 50.5745C68.5634 50.4704 68.4387 50.3881 68.3017 50.3324C68.1646 50.2767 68.0179 50.2487 67.87 50.25H65.13C64.9821 50.2487 64.8354 50.2767 64.6983 50.3324C64.5613 50.3881 64.4366 50.4704 64.3316 50.5745C64.2265 50.6787 64.1431 50.8026 64.0862 50.9391C64.0293 51.0757 64 51.2221 64 51.37Z" fill="#4377D1"/>
<path d="M64 58.0895V26.1595C64 24.9334 63.0061 23.9395 61.78 23.9395L34.22 23.9395C32.9939 23.9395 32 24.9334 32 26.1595V58.0895C32 59.3155 32.9939 60.3095 34.22 60.3095H61.78C63.0061 60.3095 64 59.3155 64 58.0895Z" fill="#70C2EF"/>
<path d="M59 29.8009V27.4609C59 26.7263 58.4045 26.1309 57.67 26.1309H38.33C37.5955 26.1309 37 26.7263 37 27.4609V29.8009C37 30.5354 37.5955 31.1309 38.33 31.1309H57.67C58.4045 31.1309 59 30.5354 59 29.8009Z" fill="white"/>
<path d="M60.9102 80.5397V56.4297H35.0802V80.5397H60.9102Z" fill="#F49B38"/>
<path d="M60.9201 81.5495H35.0801C34.8149 81.5495 34.5605 81.4441 34.373 81.2566C34.1854 81.069 34.0801 80.8147 34.0801 80.5495V56.4395C34.0801 56.1742 34.1854 55.9199 34.373 55.7323C34.5605 55.5448 34.8149 55.4395 35.0801 55.4395H60.9201C61.1853 55.4395 61.4396 55.5448 61.6272 55.7323C61.8147 55.9199 61.9201 56.1742 61.9201 56.4395V80.5495C61.9201 80.8147 61.8147 81.069 61.6272 81.2566C61.4396 81.4441 61.1853 81.5495 60.9201 81.5495ZM36.0801 79.5495H59.9201V57.4395H36.0801V79.5495Z" fill="#302D3D"/>
<path d="M57.4698 59.8809H38.5298V80.5509H57.4698V59.8809Z" fill="#ADE8F4"/>
<path d="M38.5301 62.1895V59.8795H57.4701V62.1895H60.9201V56.4395H35.0801V62.1895H38.5301Z" fill="#F4D26F"/>
<path d="M38.5301 75.8691H35.0801V80.5391H38.5301V75.8691Z" fill="#EA5038"/>
<path d="M60.9202 75.8691H57.4702V80.5391H60.9202V75.8691Z" fill="#EA5038"/>
<path d="M57.4698 59.8809H38.5298V61.7909H57.4698V59.8809Z" fill="#76B1F4"/>
<path d="M50.23 59.8809H48V80.5509H50.23V59.8809Z" fill="#76B1F4"/>
<path d="M44.9502 76.4298V64.0098C44.9502 63.7779 44.7621 63.5898 44.5302 63.5898H41.9802C41.7482 63.5898 41.5602 63.7779 41.5602 64.0098V76.4298C41.5602 76.6618 41.7482 76.8498 41.9802 76.8498H44.5302C44.7621 76.8498 44.9502 76.6618 44.9502 76.4298Z" fill="white"/>
<path d="M54.9902 76.4201V64.0001C54.9902 63.7681 54.8022 63.5801 54.5702 63.5801H52.0202C51.7883 63.5801 51.6002 63.7681 51.6002 64.0001V76.4201C51.6002 76.652 51.7883 76.8401 52.0202 76.8401H54.5702C54.8022 76.8401 54.9902 76.652 54.9902 76.4201Z" fill="white"/>
<path d="M57.4698 81.5509H38.5298C38.2646 81.5509 38.0102 81.4455 37.8227 81.258C37.6351 81.0704 37.5298 80.8161 37.5298 80.5509V59.8809C37.5298 59.6156 37.6351 59.3613 37.8227 59.1738C38.0102 58.9862 38.2646 58.8809 38.5298 58.8809H57.4698C57.735 58.8809 57.9894 58.9862 58.1769 59.1738C58.3644 59.3613 58.4698 59.6156 58.4698 59.8809V80.5509C58.4698 80.8161 58.3644 81.0704 58.1769 81.258C57.9894 81.4455 57.735 81.5509 57.4698 81.5509ZM39.5298 79.5509H56.4698V60.8809H39.5298V79.5509Z" fill="#302D3D"/>
<path d="M94 80.5508H2V84.6908H94V80.5508Z" fill="#B3C4D0"/>
<path d="M75.5302 80.5508H20.4702V84.6908H75.5302V80.5508Z" fill="#6D7EA8"/>
<path d="M59.1898 80.5508H36.7998V84.6908H59.1898V80.5508Z" fill="#B3C4D0"/>
<path d="M30.35 78.3301H24V84.6801H30.35V78.3301Z" fill="#B3C4D0"/>
<path d="M72.1698 78.3301H65.8198V84.6801H72.1698V78.3301Z" fill="#B3C4D0"/>
<path d="M30.35 78.3301H24V81.5101H30.35V78.3301Z" fill="#E5ECF3"/>
<path d="M72.1698 78.3301H65.8198V81.5101H72.1698V78.3301Z" fill="#E5ECF3"/>
<path d="M20.4698 56.4395H8.77979V68.1295H20.4698V56.4395Z" fill="#ADE8F4"/>
<path d="M87.2198 56.4395H75.5298V68.1295H87.2198V56.4395Z" fill="#ADE8F4"/>
<path d="M20.4698 37.2695H8.77979V48.9595H20.4698V37.2695Z" fill="#ADE8F4"/>
<path d="M87.2198 37.2695H75.5298V48.9595H87.2198V37.2695Z" fill="#ADE8F4"/>
<path d="M56.8099 34.6909H50.5799V28.4609H45.4199V34.6909H39.1899V39.8509H45.4199V46.0809H50.5799V39.8509H56.8099V34.6909Z" fill="#F73962"/>
<path d="M35.08 81.5495H30.35C30.0848 81.5495 29.8304 81.4442 29.6429 81.2566C29.4554 81.0691 29.35 80.8148 29.35 80.5495V79.3295H25V80.5495C25 80.8148 24.8946 81.0691 24.7071 81.2566C24.5196 81.4442 24.2652 81.5495 24 81.5495H4C3.73478 81.5495 3.48043 81.4442 3.29289 81.2566C3.10536 81.0691 3 80.8148 3 80.5495V32.5495C3 32.2843 3.10536 32.03 3.29289 31.8424C3.48043 31.6549 3.73478 31.5495 4 31.5495H27C27.2652 31.5495 27.5196 31.6549 27.7071 31.8424C27.8946 32.03 28 32.2843 28 32.5495V64.3095H35.08C35.3452 64.3095 35.5996 64.4149 35.7871 64.6024C35.9746 64.79 36.08 65.0443 36.08 65.3095V80.5495C36.08 80.8148 35.9746 81.0691 35.7871 81.2566C35.5996 81.4442 35.3452 81.5495 35.08 81.5495ZM31.35 79.5495H34.08V66.3095H27C26.7348 66.3095 26.4804 66.2042 26.2929 66.0166C26.1054 65.8291 26 65.5747 26 65.3095V33.5195H5V79.5195H23V78.3295C23 78.0643 23.1054 77.81 23.2929 77.6224C23.4804 77.4349 23.7348 77.3295 24 77.3295H30.35C30.6152 77.3295 30.8696 77.4349 31.0571 77.6224C31.2446 77.81 31.35 78.0643 31.35 78.3295V79.5495ZM92 81.5495H72.18C71.9148 81.5495 71.6604 81.4442 71.4729 81.2566C71.2854 81.0691 71.18 80.8148 71.18 80.5495V79.3295H66.82V80.5495C66.82 80.8148 66.7146 81.0691 66.5271 81.2566C66.3396 81.4442 66.0852 81.5495 65.82 81.5495H60.92C60.6548 81.5495 60.4004 81.4442 60.2129 81.2566C60.0254 81.0691 59.92 80.8148 59.92 80.5495V65.3095C59.92 65.0443 60.0254 64.79 60.2129 64.6024C60.4004 64.4149 60.6548 64.3095 60.92 64.3095H68V32.5195C68 32.2543 68.1054 32 68.2929 31.8124C68.4804 31.6249 68.7348 31.5195 69 31.5195H92C92.2652 31.5195 92.5196 31.6249 92.7071 31.8124C92.8946 32 93 32.2543 93 32.5195V80.5195C93.004 80.6534 92.9811 80.7866 92.9327 80.9114C92.8842 81.0362 92.8112 81.1501 92.7179 81.2461C92.6247 81.3422 92.5131 81.4185 92.3897 81.4706C92.2664 81.5228 92.1339 81.5496 92 81.5495ZM73.18 79.5495H91V33.5495H70V65.3095C70 65.5747 69.8946 65.8291 69.7071 66.0166C69.5196 66.2042 69.2652 66.3095 69 66.3095H61.92V79.5495H64.82V78.3295C64.82 78.0643 64.9254 77.81 65.1129 77.6224C65.3004 77.4349 65.5548 77.3295 65.82 77.3295H72.18C72.4452 77.3295 72.6996 77.4349 72.8871 77.6224C73.0746 77.81 73.18 78.0643 73.18 78.3295V79.5495Z" fill="#302D3D"/>
<path d="M27 33.5205H1C0.734784 33.5205 0.48043 33.4152 0.292893 33.2277C0.105357 33.0401 0 32.7858 0 32.5205V26.0005C0 25.7353 0.105357 25.481 0.292893 25.2934C0.48043 25.1059 0.734784 25.0005 1 25.0005H27C27.2652 25.0005 27.5196 25.1059 27.7071 25.2934C27.8946 25.481 28 25.7353 28 26.0005V32.5405C27.9948 32.8023 27.8871 33.0515 27.7001 33.2348C27.5132 33.418 27.2618 33.5206 27 33.5205ZM2 31.5205H26V27.0005H2V31.5205ZM95 33.5205H69C68.7348 33.5205 68.4804 33.4152 68.2929 33.2277C68.1054 33.0401 68 32.7858 68 32.5205V26.0005C68 25.7353 68.1054 25.481 68.2929 25.2934C68.4804 25.1059 68.7348 25.0005 69 25.0005H95C95.2652 25.0005 95.5196 25.1059 95.7071 25.2934C95.8946 25.481 96 25.7353 96 26.0005V32.5405C95.9948 32.8023 95.8871 33.0515 95.7001 33.2348C95.5132 33.418 95.2618 33.5206 95 33.5205ZM70 31.5205H94V27.0005H70V31.5205ZM57.47 81.5506H38.53C38.2648 81.5506 38.0104 81.4452 37.8229 81.2577C37.6354 81.0701 37.53 80.8158 37.53 80.5506V59.8805C37.53 59.6153 37.6354 59.361 37.8229 59.1734C38.0104 58.9859 38.2648 58.8805 38.53 58.8805H57.47C57.7352 58.8805 57.9896 58.9859 58.1771 59.1734C58.3646 59.361 58.47 59.6153 58.47 59.8805V80.5506C58.47 80.8158 58.3646 81.0701 58.1771 81.2577C57.9896 81.4452 57.7352 81.5506 57.47 81.5506ZM39.53 79.5506H56.47V60.8805H39.53V79.5506ZM35.08 81.5506H30.35C30.0848 81.5506 29.8304 81.4452 29.6429 81.2577C29.4554 81.0701 29.35 80.8158 29.35 80.5506V79.3306H27C26.7348 79.3306 26.4804 79.2252 26.2929 79.0377C26.1054 78.8501 26 78.5958 26 78.3306V65.3305C26 65.0653 26.1054 64.811 26.2929 64.6234C26.4804 64.4359 26.7348 64.3305 27 64.3305H35.08C35.3452 64.3305 35.5996 64.4359 35.7871 64.6234C35.9746 64.811 36.08 65.0653 36.08 65.3305V80.5506C36.08 80.8158 35.9746 81.0701 35.7871 81.2577C35.5996 81.4452 35.3452 81.5506 35.08 81.5506ZM31.35 79.5506H34.08V66.3105H28V77.3105H30.35C30.6152 77.3105 30.8696 77.4159 31.0571 77.6034C31.2446 77.791 31.35 78.0453 31.35 78.3105V79.5506ZM65.82 81.5506H60.92C60.6548 81.5506 60.4004 81.4452 60.2129 81.2577C60.0254 81.0701 59.92 80.8158 59.92 80.5506V65.3105C59.92 65.0453 60.0254 64.791 60.2129 64.6034C60.4004 64.4159 60.6548 64.3105 60.92 64.3105H69C69.2652 64.3105 69.5196 64.4159 69.7071 64.6034C69.8946 64.791 70 65.0453 70 65.3105V78.3105C70 78.5758 69.8946 78.8301 69.7071 79.0177C69.5196 79.2052 69.2652 79.3105 69 79.3105H66.82V80.5305C66.8227 80.6635 66.7988 80.7957 66.7497 80.9194C66.7006 81.043 66.6274 81.1556 66.5343 81.2506C66.4411 81.3456 66.33 81.4211 66.2074 81.4726C66.0847 81.5241 65.953 81.5506 65.82 81.5506ZM61.92 79.5506H64.82V78.3306C64.82 78.0653 64.9254 77.811 65.1129 77.6234C65.3004 77.4359 65.5548 77.3306 65.82 77.3306H68V66.3305H61.92V79.5506ZM69 19.9405H27C26.7348 19.9405 26.4804 19.8352 26.2929 19.6477C26.1054 19.4601 26 19.2058 26 18.9405V11.3105C26 11.0453 26.1054 10.791 26.2929 10.6034C26.4804 10.4159 26.7348 10.3105 27 10.3105H69C69.2652 10.3105 69.5196 10.4159 69.7071 10.6034C69.8946 10.791 70 11.0453 70 11.3105V18.9405C70 19.2058 69.8946 19.4601 69.7071 19.6477C69.5196 19.8352 69.2652 19.9405 69 19.9405ZM28 17.9405H68V12.3105H28V17.9405Z" fill="#302D3D"/>
<path d="M69 66.3094H60.92C60.6548 66.3094 60.4004 66.2041 60.2129 66.0166C60.0254 65.829 59.92 65.5747 59.92 65.3094V57.4395H36.08V65.3094C36.08 65.5747 35.9746 65.829 35.7871 66.0166C35.5996 66.2041 35.3452 66.3094 35.08 66.3094H27C26.7348 66.3094 26.4804 66.2041 26.2929 66.0166C26.1054 65.829 26 65.5747 26 65.3094V18.9395C26 18.6742 26.1054 18.4199 26.2929 18.2323C26.4804 18.0448 26.7348 17.9395 27 17.9395H69C69.2652 17.9395 69.5196 18.0448 69.7071 18.2323C69.8946 18.4199 70 18.6742 70 18.9395V65.3094C70 65.5747 69.8946 65.829 69.7071 66.0166C69.5196 66.2041 69.2652 66.3094 69 66.3094ZM61.92 64.3094H68V19.9395H28V64.3094H34.08V56.4395C34.08 56.1742 34.1854 55.9199 34.3729 55.7323C34.5604 55.5448 34.8148 55.4395 35.08 55.4395H60.92C61.1852 55.4395 61.4396 55.5448 61.6271 55.7323C61.8146 55.9199 61.92 56.1742 61.92 56.4395V64.3094Z" fill="#302D3D"/>
<path d="M60.92 81.5495H57.47C57.2048 81.5495 56.9504 81.4441 56.7629 81.2566C56.5754 81.069 56.47 80.8147 56.47 80.5495V60.8795H39.53V80.5495C39.53 80.8147 39.4246 81.069 39.2371 81.2566C39.0496 81.4441 38.7952 81.5495 38.53 81.5495H35.08C34.8148 81.5495 34.5604 81.4441 34.3729 81.2566C34.1854 81.069 34.08 80.8147 34.08 80.5495V56.4395C34.08 56.1742 34.1854 55.9199 34.3729 55.7323C34.5604 55.5448 34.8148 55.4395 35.08 55.4395H60.92C61.1852 55.4395 61.4396 55.5448 61.6271 55.7323C61.8146 55.9199 61.92 56.1742 61.92 56.4395V80.5495C61.92 80.8147 61.8146 81.069 61.6271 81.2566C61.4396 81.4441 61.1852 81.5495 60.92 81.5495ZM58.47 79.5495H59.92V57.4395H36.08V79.5495H37.53V59.8795C37.53 59.6142 37.6354 59.3599 37.8229 59.1723C38.0104 58.9848 38.2648 58.8795 38.53 58.8795H57.47C57.7352 58.8795 57.9896 58.9848 58.1771 59.1723C58.3646 59.3599 58.47 59.6142 58.47 59.8795V79.5495ZM24 85.6895H2C1.73478 85.6895 1.48043 85.5841 1.29289 85.3966C1.10536 85.209 1 84.9547 1 84.6895V80.5495C1 80.2842 1.10536 80.0299 1.29289 79.8424C1.48043 79.6548 1.73478 79.5495 2 79.5495H24C24.2652 79.5495 24.5196 79.6548 24.7071 79.8424C24.8946 80.0299 25 80.2842 25 80.5495V84.6895C25 84.9547 24.8946 85.209 24.7071 85.3966C24.5196 85.5841 24.2652 85.6895 24 85.6895ZM3 83.6895H23V81.5495H3V83.6895Z" fill="#302D3D"/>
<path d="M65.8201 85.6908H30.3501C30.0849 85.6908 29.8305 85.5854 29.643 85.3979C29.4555 85.2104 29.3501 84.956 29.3501 84.6908V80.5508C29.3501 80.2856 29.4555 80.0312 29.643 79.8437C29.8305 79.6561 30.0849 79.5508 30.3501 79.5508H65.8201C66.0853 79.5508 66.3397 79.6561 66.5272 79.8437C66.7147 80.0312 66.8201 80.2856 66.8201 80.5508V84.6908C66.8201 84.956 66.7147 85.2104 66.5272 85.3979C66.3397 85.5854 66.0853 85.6908 65.8201 85.6908ZM31.3501 83.6908H64.8201V81.5508H31.3501V83.6908ZM94.0001 85.6908H72.1801C71.9149 85.6908 71.6605 85.5854 71.473 85.3979C71.2855 85.2104 71.1801 84.956 71.1801 84.6908V80.5508C71.1801 80.2856 71.2855 80.0312 71.473 79.8437C71.6605 79.6561 71.9149 79.5508 72.1801 79.5508H94.0001C94.2653 79.5508 94.5197 79.6561 94.7072 79.8437C94.8947 80.0312 95.0001 80.2856 95.0001 80.5508V84.6908C95.0001 84.956 94.8947 85.2104 94.7072 85.3979C94.5197 85.5854 94.2653 85.6908 94.0001 85.6908ZM73.1801 83.6908H93.0001V81.5508H73.1801V83.6908Z" fill="#302D3D"/>
<path d="M30.3498 85.6909H23.9998C23.7346 85.6909 23.4802 85.5856 23.2927 85.398C23.1051 85.2105 22.9998 84.9562 22.9998 84.6909V78.3309C22.9998 78.0657 23.1051 77.8114 23.2927 77.6238C23.4802 77.4363 23.7346 77.3309 23.9998 77.3309H30.3498C30.615 77.3309 30.8694 77.4363 31.0569 77.6238C31.2444 77.8114 31.3498 78.0657 31.3498 78.3309V84.6909C31.3498 84.9562 31.2444 85.2105 31.0569 85.398C30.8694 85.5856 30.615 85.6909 30.3498 85.6909ZM24.9998 83.6909H29.3498V79.3309H24.9998V83.6909ZM72.1798 85.6909H65.8198C65.5546 85.6909 65.3002 85.5856 65.1127 85.398C64.9251 85.2105 64.8198 84.9562 64.8198 84.6909V78.3309C64.8198 78.0657 64.9251 77.8114 65.1127 77.6238C65.3002 77.4363 65.5546 77.3309 65.8198 77.3309H72.1798C72.445 77.3309 72.6994 77.4363 72.8869 77.6238C73.0744 77.8114 73.1798 78.0657 73.1798 78.3309V84.6909C73.1798 84.9562 73.0744 85.2105 72.8869 85.398C72.6994 85.5856 72.445 85.6909 72.1798 85.6909ZM66.8198 83.6909H71.1798V79.3309H66.8198V83.6909ZM20.4698 69.1209H8.77978C8.51457 69.1209 8.26021 69.0156 8.07268 68.828C7.88514 68.6405 7.77979 68.3862 7.77979 68.1209V56.4409C7.77979 56.1757 7.88514 55.9214 8.07268 55.7338C8.26021 55.5463 8.51457 55.4409 8.77978 55.4409H20.4698C20.735 55.4409 20.9894 55.5463 21.1769 55.7338C21.3644 55.9214 21.4698 56.1757 21.4698 56.4409V68.1209C21.4698 68.3862 21.3644 68.6405 21.1769 68.828C20.9894 69.0156 20.735 69.1209 20.4698 69.1209ZM9.77978 67.1209H19.4698V57.4409H9.77978V67.1209ZM87.2198 69.1209H75.5298C75.2646 69.1209 75.0102 69.0156 74.8227 68.828C74.6351 68.6405 74.5298 68.3862 74.5298 68.1209V56.4409C74.5298 56.1757 74.6351 55.9214 74.8227 55.7338C75.0102 55.5463 75.2646 55.4409 75.5298 55.4409H87.2198C87.485 55.4409 87.7394 55.5463 87.9269 55.7338C88.1144 55.9214 88.2198 56.1757 88.2198 56.4409V68.1209C88.2198 68.3862 88.1144 68.6405 87.9269 68.828C87.7394 69.0156 87.485 69.1209 87.2198 69.1209ZM76.5298 67.1209H86.2198V57.4409H76.5298V67.1209ZM20.4698 50.0009H8.77978C8.51457 50.0009 8.26021 49.8956 8.07268 49.708C7.88514 49.5205 7.77979 49.2662 7.77979 49.0009V37.2709C7.77979 37.0057 7.88514 36.7514 8.07268 36.5638C8.26021 36.3763 8.51457 36.2709 8.77978 36.2709H20.4698C20.735 36.2709 20.9894 36.3763 21.1769 36.5638C21.3644 36.7514 21.4698 37.0057 21.4698 37.2709V49.0009C21.4698 49.2662 21.3644 49.5205 21.1769 49.708C20.9894 49.8956 20.735 50.0009 20.4698 50.0009ZM9.77978 48.0009H19.4698V38.2709H9.77978V48.0009ZM87.2198 50.0009H75.5298C75.2646 50.0009 75.0102 49.8956 74.8227 49.708C74.6351 49.5205 74.5298 49.2662 74.5298 49.0009V37.2709C74.5298 37.0057 74.6351 36.7514 74.8227 36.5638C75.0102 36.3763 75.2646 36.2709 75.5298 36.2709H87.2198C87.485 36.2709 87.7394 36.3763 87.9269 36.5638C88.1144 36.7514 88.2198 37.0057 88.2198 37.2709V49.0009C88.2198 49.2662 88.1144 49.5205 87.9269 49.708C87.7394 49.8956 87.485 50.0009 87.2198 50.0009ZM76.5298 48.0009H86.2198V38.2709H76.5298V48.0009ZM47.9998 81.5509C47.7346 81.5509 47.4802 81.4456 47.2927 81.258C47.1051 81.0705 46.9998 80.8162 46.9998 80.5509V59.8809C46.9998 59.6157 47.1051 59.3614 47.2927 59.1738C47.4802 58.9863 47.7346 58.8809 47.9998 58.8809C48.265 58.8809 48.5194 58.9863 48.7069 59.1738C48.8944 59.3614 48.9998 59.6157 48.9998 59.8809V80.5509C48.9998 80.8162 48.8944 81.0705 48.7069 81.258C48.5194 81.4456 48.265 81.5509 47.9998 81.5509ZM50.5798 47.0809H45.4198C45.1546 47.0809 44.9002 46.9756 44.7127 46.788C44.5251 46.6005 44.4198 46.3462 44.4198 46.0809V40.8509H39.1898C38.9246 40.8509 38.6702 40.7456 38.4827 40.558C38.2951 40.3705 38.1898 40.1162 38.1898 39.8509V34.6909C38.1898 34.4257 38.2951 34.1714 38.4827 33.9838C38.6702 33.7963 38.9246 33.6909 39.1898 33.6909H44.4198V28.4609C44.4198 28.1957 44.5251 27.9414 44.7127 27.7538C44.9002 27.5663 45.1546 27.4609 45.4198 27.4609H50.5798C50.845 27.4609 51.0994 27.5663 51.2869 27.7538C51.4744 27.9414 51.5798 28.1957 51.5798 28.4609V33.6909H56.8098C57.075 33.6909 57.3294 33.7963 57.5169 33.9838C57.7044 34.1714 57.8098 34.4257 57.8098 34.6909V39.8509C57.8098 40.1162 57.7044 40.3705 57.5169 40.558C57.3294 40.7456 57.075 40.8509 56.8098 40.8509H51.5798V46.0809C51.5798 46.3462 51.4744 46.6005 51.2869 46.788C51.0994 46.9756 50.845 47.0809 50.5798 47.0809ZM46.4198 45.0809H49.5798V39.8509C49.5798 39.5857 49.6851 39.3314 49.8727 39.1438C50.0602 38.9563 50.3146 38.8509 50.5798 38.8509H55.8098V35.6909H50.5798C50.3146 35.6909 50.0602 35.5856 49.8727 35.398C49.6851 35.2105 49.5798 34.9562 49.5798 34.6909V29.4609H46.4198V34.6909C46.4198 34.9562 46.3144 35.2105 46.1269 35.398C45.9394 35.5856 45.685 35.6909 45.4198 35.6909H40.1898V38.8509H45.4198C45.685 38.8509 45.9394 38.9563 46.1269 39.1438C46.3144 39.3314 46.4198 39.5857 46.4198 39.8509V45.0809Z" fill="#302D3D"/>
</svg>
